{"title":"Meenakshi Kadhalan Elangovan 2016 Movies TCRip XviD New +Sample","uid":13196632,"size":739924425,"categoryP":"video","categoryS":"movies","magnet":"?xt=urn:btih:b57332da264403e46d85b8a1972057834f304174&amp;dn=Meenakshi+Kadhalan+Elangovan+2016+Movies+TCRip+XviD+New+%2BSample+&amp;tr=udp%3A%2F%2Ftracker.leechers-paradise.org%3A6969&amp;tr=udp%3A%2F%2Fzer0day.ch%3A1337&amp;tr=udp%3A%2F%2Fopen.demonii.com%3A1337&amp;tr=udp%3A%2F%2Ftracker.coppersurfer.tk%3A6969&amp;tr=udp%3A%2F%2Fexodus.desync.com%3A6969","seeders":0,"leechers":1,"uploader":"basicssom","files":2,"time":1452495887,"description":"----------------------------------------------------------------\r\nMeenakshi Kadhalan Elangovan 2016 Tamil Movies TCRip XviD AAC New Source with Sample ~ ☻rDX☻\r\n\r\nSCREEN SHOTS &amp; POSTER:\r\n  \nhttp://doctorhosts.com/2016/1/mke/11.html  \nhttp://doctorhosts.com/2016/1/mke/1.html  \nhttp://doctorhosts.com/2016/1/mke/2.html  \nhttp://doctorhosts.com/2016/1/mke/3.html  \nhttp://doctorhosts.com/2016/1/mke/4.html  \nhttp://doctorhosts.com/2016/1/mke/5.html  \nhttp://doctorhosts.com/2016/1/mke/6.html  \nhttp://doctorhosts.com/2016/1/mke/7.html  \nhttp://doctorhosts.com/2016/1/mke/8.html  \nhttp://doctorhosts.com/2016/1/mke/9.html  \nhttp://doctorhosts.com/2016/1/mke/10.html\r\n\r\nFormat                                   : Matroska\r\nFormat version                           : Version 4 / Version 2\r\nFile size                                : 701 MiB\r\nDuration                                 : 2h 14mn\r\nOverall bit rate                         : 726 Kbps\r\nMovie name                               : Meenakshi Kadhalan Elangovan 2016 Tamil Movies TCRip XviD AAC New Source ~ rDX ~\r\n\r\nVideo\r\nID                                       : 1\r\nFormat                                   : AVC\r\nFormat/Info                              : Advanced Video Codec\r\nFormat profile                           :   \r\nFormat settings, CABAC                   : Yes\r\nFormat settings, ReFrames                : 4 frames\r\nCodec ID                                 : V_MPEG4/ISO/AVC\r\nDuration                                 : 2h 14mn\r\nBit rate                                 : 628 Kbps\r\nWidth                                    : 608 pixels\r\nHeight                                   : 256 pixels\r\nDisplay aspect ratio                     : 2.40:1\r\nFrame rate mode                          : Constant\r\nFrame rate                               : 29.970 fps\r\nColor space                              : YUV\r\nChroma subsampling                       : 4:2:0\r\nBit depth                                : 8 bits\r\nScan type                                : Progressive\r\nBits/(Pixel*Frame)                       : 0.135\r\nStream size                              : 594 MiB (85%)\r\nTitle                                    : ~ rDX ~\r\nWriting library                          : XviD\r\nLanguage                                 : Tamil\r\nDefault                                  : Yes\r\nForced                                   : Yes\r\n\r\nAudio\r\nID                                       : 2\r\nFormat                                   : MPEG Audio\r\nFormat version                           : Version 1\r\nFormat profile                           : Layer 3\r\nMode                                     : Joint stereo\r\nMode extension                           : MS Stereo\r\nCodec ID                                 : A_MPEG/L3\r\nCodec ID/Hint                            : MP3\r\nDuration                                 : 2h 14mn\r\nBit rate mode                            : Constant\r\nBit rate                                 : 96.0 Kbps\r\nChannel(s)                               : 2 channels\r\nSampling rate                            : 44.1 KHz\r\nCompression mode                         : Lossy\r\nStream size                              : 92.6 MiB (13%)\r\nTitle                                    : ~ rDX ~\r\nWriting library                          : LAME3.98r\r\nEncoding settings                        : -m j -V 4 -q 3 -lowpass 15.1 -b 96\r\nLanguage                                 : Tamil\r\nDefault                                  : Yes\r\nForced                                   : Yes\r\n\r\nIMDB                                     \r\nna","torrent":{"xt":"urn:btih:b57332da264403e46d85b8a1972057834f304174","amp;dn":"Meenakshi+Kadhalan+Elangovan+2016+Movies+TCRip+XviD+New+%2BSample+","amp;tr":["udp%3A%2F%2Ftracker.leechers-paradise.org%3A6969","udp%3A%2F%2Fzer0day.ch%3A1337","udp%3A%2F%2Fopen.demonii.com%3A1337","udp%3A%2F%2Ftracker.coppersurfer.tk%3A6969","udp%3A%2F%2Fexodus.desync.com%3A6969"],"infoHash":"b57332da264403e46d85b8a1972057834f304174","infoHashBuffer":{"type":"Buffer","data":[181,115,50,218,38,68,3,228,109,133,184,161,151,32,87,131,79,48,65,116]},"announce":[],"urlList":[]}}